<svg width="1024" height="1024" viewBox="0 0 1024 1024" fill="none" xmlns="http://www.w3.org/2000/svg">
<g clip-path="url(#clip0_2632_817)">
<rect width="1024" height="1024" fill="#FFA800"/>
<g clip-path="url(#clip1_2632_817)">
<ellipse cx="515.802" cy="456.25" rx="264.155" ry="278.262" fill="black"/>
<path d="M852 460.687C852 291.314 718.024 154 510.989 154C303.953 154 170 291.314 170 460.687C170 630.06 303.953 767.374 510.989 767.374C718.024 767.374 851.977 630.06 851.977 460.687H852ZM431.29 532.472C409.12 500.527 386.79 468.673 364.916 436.546C361.005 430.812 358.503 423.986 356.025 417.411C343.246 383.668 330.671 349.835 318.029 316.046C317.71 315.205 317.437 314.317 316.96 312.929C351.25 299.596 385.471 286.308 419.989 272.884C423.945 283.51 427.788 293.794 431.608 304.101C442.136 332.52 453.028 360.824 462.987 389.47C466.307 399.049 467.376 409.424 469.263 419.481C476.494 457.797 483.634 496.113 490.888 534.839C475.971 541.369 461.35 547.785 446.502 554.292C441.34 546.875 436.292 539.685 431.29 532.472ZM512.74 694.041C478.859 694.109 452.96 669.24 453.71 634.178C454.415 601.414 479.769 576.772 513.717 576.954C547.689 577.136 572.565 602.21 572.451 636.158C572.36 670.105 547.461 694.2 512.717 694.041H512.74ZM715.477 423.281C705.586 450.721 685.781 468.514 659.495 479.686C642.6 486.875 624.864 490.857 606.718 493.155C598.055 494.247 598.032 494.02 595.849 502.393C592.416 515.612 588.959 528.809 585.503 542.006C585.253 543.007 584.889 543.985 584.548 545.1C563.879 541.437 543.368 537.842 522.904 534.042C521.903 533.86 520.448 532.086 520.448 531.039C520.402 512.495 520.311 493.974 520.744 475.454C521.13 458.844 529.452 447.445 545.165 441.87C557.512 437.502 569.973 433.497 582.388 429.379C596.395 424.714 605.149 415.226 608.446 400.869C610.357 392.565 612.267 384.237 613.426 375.796C615.382 361.348 608.469 349.47 595.349 343.031C585.208 338.049 574.316 336.706 563.288 336.228C542.595 335.295 522.585 339.527 502.666 344.397C501.916 344.579 501.143 344.761 500.37 344.897C500.12 344.943 499.847 344.852 499.051 344.783C495.64 320.916 492.252 297.161 488.728 272.543C497.846 270.063 506.805 267.219 515.968 265.239C544.665 259.005 573.725 257.23 602.875 260.575C632.299 263.965 659.677 273.225 682.893 292.383C706.564 311.928 719.616 337.161 722.117 367.787C723.663 386.74 721.935 405.329 715.455 423.281H715.477Z" fill="white"/>
<path d="M747.152 883.596C788.016 883.596 821.143 849.765 821.143 808.033C821.143 766.301 788.016 732.471 747.152 732.471C706.287 732.471 673.16 766.301 673.16 808.033C673.16 849.765 706.287 883.596 747.152 883.596Z" fill="white"/>
<path d="M620.453 960C651.082 960 675.912 934.645 675.912 903.368C675.912 872.091 651.082 846.736 620.453 846.736C589.823 846.736 564.993 872.091 564.993 903.368C564.993 934.645 589.823 960 620.453 960Z" fill="white"/>
</g>
</g>
<defs>
<clipPath id="clip0_2632_817">
<rect width="1024" height="1024" rx="228" fill="white"/>
</clipPath>
<clipPath id="clip1_2632_817">
<rect width="682" height="806" fill="white" transform="translate(170 154)"/>
</clipPath>
</defs>
</svg>
