<svg width="1024" height="1024" viewBox="0 0 1024 1024" fill="none" xmlns="http://www.w3.org/2000/svg">
<g clip-path="url(#clip0_2632_15032)">
<g clip-path="url(#clip1_2632_15032)">
<rect width="1024" height="1024" fill="black"/>
<rect x="-60.6318" y="-181.895" width="1249.68" height="1468.63" rx="26" fill="#FF9900"/>
<rect x="660.625" y="-151.579" width="1013.76" height="1534.75" rx="26" transform="rotate(28.0311 660.625 -151.579)" fill="#4C94FF"/>
<rect x="1058.1" y="-67.3684" width="1013.76" height="1534.75" rx="26" transform="rotate(28.0311 1058.1 -67.3684)" fill="#FF5EA1"/>
<path d="M235.789 134.563C230.941 134.563 226.811 132.812 223.4 129.311C219.988 125.809 218.282 121.679 218.282 116.921V91.1988C218.282 86.4404 219.988 82.3105 223.4 78.8091C226.811 75.3076 230.941 73.5569 235.789 73.5569C240.548 73.5569 244.633 75.3076 248.045 78.8091C251.546 82.3105 253.297 86.4404 253.297 91.1988V116.921C253.297 121.679 251.546 125.809 248.045 129.311C244.633 132.812 240.548 134.563 235.789 134.563ZM305.414 163.786C302.003 160.465 300.252 156.335 300.162 151.397C300.162 146.459 301.823 142.329 305.145 139.007L323.326 120.557C326.648 117.235 330.777 115.574 335.715 115.574C340.653 115.484 344.783 117.101 348.105 120.422C351.517 123.744 353.223 127.919 353.223 132.947C353.312 137.885 351.696 141.97 348.374 145.202L330.194 163.652C326.872 167.063 322.742 168.769 317.804 168.769C312.866 168.769 308.736 167.108 305.414 163.786ZM334.234 232.873C334.234 228.114 335.94 223.984 339.352 220.483C342.853 216.982 346.983 215.231 351.741 215.231H377.463C382.222 215.231 386.352 216.982 389.853 220.483C393.355 223.984 395.105 228.114 395.105 232.873C395.105 237.631 393.355 241.761 389.853 245.262C386.352 248.674 382.222 250.38 377.463 250.38H351.741C346.983 250.38 342.853 248.674 339.352 245.262C335.94 241.761 334.234 237.631 334.234 232.873ZM305.145 302.228C308.557 298.906 312.687 297.245 317.535 297.245C322.473 297.156 326.603 298.727 329.925 301.959L348.24 320.274C351.651 323.596 353.357 327.726 353.357 332.664C353.447 337.602 351.876 341.687 348.644 344.919C345.232 348.331 341.057 350.037 336.119 350.037C331.181 350.126 327.052 348.555 323.73 345.323L305.414 327.008C302.003 323.686 300.252 319.556 300.162 314.618C300.162 309.68 301.823 305.55 305.145 302.228ZM235.789 331.183C240.548 331.183 244.633 332.888 248.045 336.3C251.546 339.802 253.297 343.931 253.297 348.69V374.412C253.297 379.17 251.546 383.3 248.045 386.802C244.633 390.303 240.548 392.054 235.789 392.054C230.941 392.054 226.811 390.303 223.4 386.802C219.988 383.3 218.282 379.17 218.282 374.412V348.69C218.282 343.931 219.988 339.802 223.4 336.3C226.811 332.888 230.941 331.183 235.789 331.183ZM166.434 302.228C169.666 305.55 171.237 309.68 171.147 314.618C171.147 319.556 169.442 323.686 166.03 327.008L147.715 345.323C144.393 348.555 140.263 350.126 135.325 350.037C130.387 349.947 126.212 348.241 122.8 344.919C119.568 341.597 117.952 337.467 117.952 332.529C118.042 327.591 119.793 323.461 123.204 320.14L141.385 301.959C144.707 298.727 148.837 297.156 153.775 297.245C158.803 297.245 163.022 298.906 166.434 302.228ZM137.345 232.873C137.345 237.631 135.594 241.761 132.093 245.262C128.591 248.674 124.461 250.38 119.703 250.38H93.9809C89.2225 250.38 85.0926 248.674 81.5911 245.262C78.1795 241.761 76.4736 237.631 76.4736 232.873C76.4736 228.114 78.1795 223.984 81.5911 220.483C85.0926 216.982 89.2225 215.231 93.9809 215.231H119.703C124.461 215.231 128.591 216.982 132.093 220.483C135.594 223.984 137.345 228.114 137.345 232.873ZM166.03 163.786C162.708 167.108 158.578 168.769 153.64 168.769C148.702 168.68 144.572 166.974 141.25 163.652L123.07 145.202C119.838 141.97 118.222 137.885 118.222 132.947C118.311 127.919 120.017 123.744 123.339 120.422C126.661 117.101 130.791 115.484 135.729 115.574C140.757 115.664 144.887 117.325 148.119 120.557L166.434 139.007C169.666 142.239 171.237 146.369 171.147 151.397C171.147 156.335 169.442 160.465 166.03 163.786ZM235.655 307.346C225.42 307.346 215.813 305.416 206.835 301.555C197.857 297.694 189.956 292.352 183.133 285.529C176.31 278.706 170.968 270.805 167.107 261.827C163.247 252.759 161.316 243.108 161.316 232.873C161.316 222.548 163.247 212.897 167.107 203.918C170.968 194.94 176.31 187.04 183.133 180.216C189.956 173.393 197.857 168.051 206.835 164.19C215.813 160.33 225.42 158.4 235.655 158.4C245.98 158.4 255.631 160.33 264.609 164.19C273.587 168.051 281.488 173.393 288.311 180.216C295.135 187.04 300.476 194.94 304.337 203.918C308.198 212.897 310.128 222.548 310.128 232.873C310.128 243.108 308.198 252.759 304.337 261.827C300.476 270.805 295.135 278.706 288.311 285.529C281.488 292.352 273.587 297.694 264.609 301.555C255.631 305.416 245.98 307.346 235.655 307.346Z" fill="white"/>
<path d="M610.576 560.606C620.39 560.606 629.386 559.737 637.564 557.999C645.844 556.261 652.949 554.421 658.878 552.479C659.9 552.07 660.82 551.815 661.638 551.712C662.456 551.508 663.222 551.406 663.938 551.406C666.085 551.406 667.925 552.223 669.458 553.859C670.991 555.392 671.758 557.437 671.758 559.993C671.758 560.606 671.656 561.628 671.451 563.059C671.247 564.388 670.889 565.819 670.378 567.353C663.733 583.504 653.664 598.225 640.17 611.514C626.779 624.701 610.883 635.231 592.482 643.102C574.082 650.973 554.199 654.909 532.834 654.909C511.673 654.909 491.79 650.922 473.185 642.949C454.58 634.975 438.224 623.986 424.117 609.981C410.112 595.874 399.122 579.518 391.149 560.913C383.175 542.308 379.188 522.425 379.188 501.264C379.188 480.819 383.022 461.345 390.689 442.842C398.458 424.339 409.192 407.983 422.89 393.774C436.588 379.564 452.535 368.677 470.731 361.113C472.06 360.602 473.389 360.244 474.718 360.039C476.047 359.835 477.069 359.733 477.785 359.733C480.443 359.733 482.487 360.55 483.919 362.186C485.35 363.822 486.065 365.56 486.065 367.4C486.065 368.013 485.963 368.831 485.759 369.853C485.554 370.773 485.196 371.949 484.685 373.38C482.743 377.775 481.056 382.785 479.625 388.407C478.296 393.927 477.223 399.856 476.405 406.194C475.689 412.43 475.332 418.972 475.332 425.821C475.332 446.267 478.501 464.769 484.839 481.33C491.279 497.788 500.479 511.947 512.439 523.805C524.4 535.663 538.66 544.761 555.221 551.099C571.781 557.437 590.233 560.606 610.576 560.606Z" fill="white"/>
<path d="M711.004 767.442C711.004 763.674 712.481 759.957 715.434 756.29L864.989 574.35C868.044 570.683 871.303 568.443 874.766 567.628C878.229 566.813 881.335 567.17 884.085 568.697C886.936 570.123 888.922 572.465 890.042 575.724C891.163 578.983 890.857 582.904 889.126 587.487L840.853 715.197H933.274C937.042 715.197 940.098 716.368 942.44 718.711C944.884 720.951 946.106 723.854 946.106 727.418C946.106 731.186 944.63 734.904 941.676 738.57L792.121 920.511C789.066 924.177 785.807 926.418 782.344 927.232C778.882 928.149 775.725 927.843 772.873 926.316C770.123 924.89 768.188 922.497 767.068 919.136C765.948 915.877 766.253 911.956 767.985 907.373L816.258 779.663H723.836C720.17 779.663 717.114 778.543 714.67 776.302C712.226 773.96 711.004 771.007 711.004 767.442Z" fill="white"/>
<path d="M-151.579 -107.79H1145.26V1094.74H-151.579V-107.79Z" fill="url(#paint0_linear_2632_15032)"/>
<path d="M-151.579 473.263H1145.26V1675.79H-151.579V473.263Z" fill="url(#paint1_linear_2632_15032)"/>
</g>
</g>
<defs>
<linearGradient id="paint0_linear_2632_15032" x1="496.842" y1="-107.79" x2="496.842" y2="495.158" gradientUnits="userSpaceOnUse">
<stop stop-color="white"/>
<stop offset="1" stop-color="white" stop-opacity="0"/>
</linearGradient>
<linearGradient id="paint1_linear_2632_15032" x1="496.842" y1="-107.79" x2="496.842" y2="495.158" gradientUnits="userSpaceOnUse">
<stop stop-color="white"/>
<stop offset="1" stop-color="white" stop-opacity="0"/>
</linearGradient>
<clipPath id="clip0_2632_15032">
<rect width="1024" height="1024" rx="228" fill="white"/>
</clipPath>
<clipPath id="clip1_2632_15032">
<rect width="1024" height="1024" fill="white"/>
</clipPath>
</defs>
</svg>
