<?xml version="1.0" encoding="UTF-8"?>
<svg xmlns="http://www.w3.org/2000/svg" version="1.1" viewBox="0 0 364.3 164.9">
  <!-- Generator: Adobe Illustrator 28.6.0, SVG Export Plug-In . SVG Version: 1.2.0 Build 709)  -->
  <g>
    <g id="Layer_1">
      <g>
        <polygon points="95.2 81.9 95 81.9 74.5 53 65.8 55.1 64 107.4 74 105.1 75.2 70.8 75.4 70.8 95.9 99.9 104.6 97.8 106.3 45.5 96.4 47.9 95.2 81.9"/>
        <polygon points="111.1 55 124.3 51.9 122.9 93.5 135.1 90.7 136.5 49 149.6 45.9 150 35.2 111.5 44.3 111.1 55"/>
        <polygon points="152.7 86.5 166.8 83.2 168.5 30.9 154.5 34.2 152.7 86.5"/>
        <path d="M292,56.9h0l-6.5,1.5-19.9,56.6,11.5-2.7,4.4-13.6,18.4-4.3,3.5,11.8,11.5-2.7-16.4-48-6.5,1.4ZM284.1,90l7.3-22.8h.2c0,0,5.9,19.6,5.9,19.6l-13.4,3.2Z"/>
        <polygon points="39.7 61.2 38.9 61.4 16.3 118.7 23.9 116.9 29.8 101.5 32.5 94.3 39 77.5 39 77.5 39.4 78.6 44.3 91.6 46.5 97.5 51.3 110.4 59.1 108.6 40 61.2 39.7 61.2"/>
        <polygon points="340 45.8 335 61 332.7 68.1 327.2 84.7 327.2 84.7 326.9 83.6 322.5 70.5 320.5 64.4 316.2 51.4 309.1 53.1 326.2 101.1 326.5 101 326.5 101 326.8 101 326.8 101 329 100.4 348 43.8 340 45.8"/>
        <path d="M259,91c1.6-3,2.4-6.2,2.5-9.6h0c.1-3.8-.5-6.8-1.8-9-1.3-2.3-3.3-3.7-6-4.5-2.7-.7-5.9-.6-9.8.3l-20.7,4.9-1.8,52.3,12.2-2.9.2-6.9.4-11.1.3-9.6h0c0,0,.2-5.8.2-5.8l.3-8.8,7.1-1.7c2.1-.5,3.8-.2,5.1.8s1.9,2.6,1.8,4.8h0c-.1,2.3-.8,4.2-2.1,5.8s-3.1,2.7-5.2,3.2l-4.7,1.1,11,24.9,13.7-3.2-8.9-17.7c2.6-1.8,4.7-4.3,6.2-7.3Z"/>
        <path d="M202.5,111.4v.6c-.3,1.4-.8,2.7-1.5,3.9-.8,1.2-1.7,2.1-2.9,2.9s-2.5,1.4-4.1,1.7c-2.1.5-3.8.3-5.3-.5s-2.6-2.2-3.4-4.2c-.8-2-1.1-4.6-1-7.8h0c.1-3.1.6-5.8,1.4-8.1.8-2.3,2-4.2,3.4-5.6,1.5-1.4,3.2-2.4,5.2-2.8,2-.5,3.7-.4,5.1.3s2.3,1.8,2.7,3.4v.3c.1,0,13.9-3.3,13.9-3.3v-.4c-.2-3.4-1.2-6.2-3.1-8.5-1.9-2.3-4.4-3.8-7.5-4.6-3.1-.8-6.7-.8-10.7.2-4.9,1.2-9.2,3.2-12.8,6.2s-6.5,6.7-8.5,11.1c-2,4.5-3.2,9.6-3.4,15.3h0c-.2,5.8.6,10.5,2.4,14.1,1.8,3.6,4.4,6,8,7.3,3.5,1.3,7.8,1.3,12.9.1,4.6-1.1,8.6-3,12-5.6,3.4-2.7,6-5.9,7.9-9.8s2.9-8.2,3.1-13l.2-7.1-21.9,5.2,7.9,8.7Z"/>
      </g>
      <g>
        <path d="M23.3,151h-2.3v-1.5h6.3v1.5h-2.3v6.7h-1.7v-6.7Z"/>
        <path d="M30.4,153.6c0-2.4,1.9-4.2,4.2-4.2s4.2,1.8,4.2,4.2-1.9,4.2-4.2,4.2-4.2-1.8-4.2-4.2ZM37.1,153.6c0-1.5-1-2.7-2.5-2.7s-2.5,1.2-2.5,2.7,1,2.7,2.5,2.7,2.5-1.2,2.5-2.7Z"/>
        <path d="M44.5,155.1l-3.1-5.6h1.9l1.4,2.6c.3.6.7,1.5.7,1.5,0,0,.3-1,.6-1.5l1.4-2.6h1.7l-2.9,5.4v2.7h-1.7v-2.6Z"/>
        <path d="M51.8,156.1l1.4-.8c.4.6.8,1,1.7,1s1.1-.3,1.1-.8-.5-.8-1.2-1.1l-.4-.2c-1.2-.5-2-1.2-2-2.5s1-2.2,2.5-2.2,1.8.4,2.4,1.3l-1.3.8c-.3-.5-.6-.7-1.1-.7s-.8.3-.8.7.3.7,1,1l.4.2c1.4.6,2.2,1.2,2.2,2.6s-1.2,2.3-2.8,2.3-2.6-.7-3.1-1.7Z"/>
        <path d="M69.6,149.5h.1l3.7,8.2h-1.8l-.4-.9h-3.3l-.4.9h-1.6l3.6-8.2ZM70.7,155.4l-.6-1.4c-.2-.6-.5-1.5-.5-1.5,0,0-.2.9-.5,1.5l-.6,1.4h2.1Z"/>
        <path d="M79.5,153.9c-.4-.4-1-1.1-1-1.1,0,0,.1.9.1,1.5v3.4h-1.6v-8.2h.2l4.1,3.9c.4.4,1,1.1,1,1.1,0,0-.1-.9-.1-1.5v-3.4h1.6v8.2h-.2l-4.1-3.9Z"/>
        <path d="M88.1,149.6h2.5c2.5,0,4.3,1.7,4.3,4.1s-1.8,4.1-4.3,4.1h-2.5v-8.2ZM90.5,156.2c1.8,0,2.6-1.1,2.6-2.6s-.8-2.6-2.6-2.6h-.7v5.2h.7Z"/>
        <path d="M105.8,151h-2.3v-1.5h6.3v1.5h-2.3v6.7h-1.7v-6.7Z"/>
        <path d="M112.8,153.6c0-2.4,1.9-4.2,4.2-4.2s4.2,1.8,4.2,4.2-1.9,4.2-4.2,4.2-4.2-1.8-4.2-4.2ZM119.5,153.6c0-1.5-1-2.7-2.5-2.7s-2.5,1.2-2.5,2.7,1,2.7,2.5,2.7,2.5-1.2,2.5-2.7Z"/>
        <path d="M125,153.6c0-2.4,1.9-4.2,4.2-4.2s4.2,1.8,4.2,4.2-1.9,4.2-4.2,4.2-4.2-1.8-4.2-4.2ZM131.7,153.6c0-1.5-1-2.7-2.5-2.7s-2.5,1.2-2.5,2.7,1,2.7,2.5,2.7,2.5-1.2,2.5-2.7Z"/>
        <path d="M137.3,149.6h1.7v6.7h3.7v1.5h-5.4v-8.2Z"/>
        <path d="M145.9,156.1l1.4-.8c.4.6.8,1,1.7,1s1.1-.3,1.1-.8-.5-.8-1.2-1.1l-.4-.2c-1.2-.5-2-1.2-2-2.5s1-2.2,2.5-2.2,1.8.4,2.4,1.3l-1.3.8c-.3-.5-.6-.7-1.1-.7s-.8.3-.8.7.3.7,1,1l.4.2c1.4.6,2.2,1.2,2.2,2.6s-1.2,2.3-2.8,2.3-2.6-.7-3.1-1.7Z"/>
        <path d="M160.7,149.6h5.3v1.5h-3.6v2.7h3.2v1.5h-3.2v2.5h-1.7v-8.2Z"/>
        <path d="M169.5,153.6c0-2.4,1.9-4.2,4.2-4.2s4.2,1.8,4.2,4.2-1.9,4.2-4.2,4.2-4.2-1.8-4.2-4.2ZM176.2,153.6c0-1.5-1-2.7-2.5-2.7s-2.5,1.2-2.5,2.7,1,2.7,2.5,2.7,2.5-1.2,2.5-2.7Z"/>
        <path d="M187.9,157.7h-1.9l-1.3-2.1c-.2,0-.3,0-.5,0h-.6v2h-1.7v-8.2h2.3c2.3,0,3.6,1.1,3.6,3.1s-.6,2.1-1.6,2.5l1.7,2.5ZM184.1,154.2c1.4,0,2-.4,2-1.6s-.6-1.6-2-1.6h-.5v3.2h.5Z"/>
        <path d="M198.8,151h-2.3v-1.5h6.3v1.5h-2.3v6.7h-1.7v-6.7Z"/>
        <path d="M206.6,149.6h1.7v4.2h3.5v-4.2h1.7v8.2h-1.7v-2.5h-3.5v2.5h-1.7v-8.2Z"/>
        <path d="M217.7,149.6h5.4v1.5h-3.7v2.6h3.3v1.4h-3.3v1.2h3.9v1.5h-5.6v-8.2Z"/>
        <path d="M232,157.6l3-3c.9-.9,1.4-1.4,1.4-2.2s-.5-1.1-1.2-1.1-1.3.5-1.6,1.4l-1.4-.4c.4-1.5,1.5-2.4,3-2.4s2.8,1.1,2.8,2.4-.7,2-1.7,2.9l-.7.6c-.3.3-.8.6-.8.6,0,0,.7,0,.9,0h2.4v1.3h-6.2v-.2Z"/>
        <path d="M243.9,151.3h-1.6v-1.3h3.1v7.7h-1.5v-6.4Z"/>
        <path d="M249.7,156.6l1-.7c.2.4.7.8,1.3.8s.9-.3.9-.6-.2-.5-.8-.9l-.3-.2c-.8-.5-1.2-1-1.2-1.8s.6-1.7,1.9-1.7,1.3.3,1.7.8l-.9.8c-.2-.3-.5-.5-.8-.5s-.6.3-.6.6.2.5.6.8l.3.2c.8.5,1.3,1,1.3,1.8s-.9,1.8-2.1,1.8-2-.7-2.3-1.2Z"/>
        <path d="M258.5,152.7h-1.7l.2-1.1h4.7l-.2,1.1h-1.7l-.9,5h-1.2l.9-5Z"/>
        <path d="M268.7,153.6c0-2.4,1.9-4.2,4.2-4.2s2.5.5,3.3,1.7l-1.3.9c-.4-.6-1-1.1-2-1.1-1.5,0-2.5,1.1-2.5,2.7s1,2.7,2.5,2.7,1.6-.5,2.1-1.2l1.3.9c-.7,1.1-1.8,1.8-3.4,1.8-2.3,0-4.2-1.8-4.2-4.2Z"/>
        <path d="M280.1,149.6h5.4v1.5h-3.7v2.6h3.3v1.4h-3.3v1.2h3.9v1.5h-5.6v-8.2Z"/>
        <path d="M292.2,153.9c-.4-.4-1-1.1-1-1.1,0,0,.1.9.1,1.5v3.4h-1.6v-8.2h.2l4.1,3.9c.4.4,1,1.1,1,1.1,0,0-.1-.9-.1-1.5v-3.4h1.6v8.2h-.2l-4.1-3.9Z"/>
        <path d="M302.5,151h-2.3v-1.5h6.3v1.5h-2.3v6.7h-1.7v-6.7Z"/>
        <path d="M310.3,154.8v-5.2h1.7v5.1c0,1.2.5,1.6,1.6,1.6s1.6-.5,1.6-1.6v-5.1h1.7v5.2c0,2.1-1.4,3.1-3.3,3.1s-3.3-1-3.3-3.1Z"/>
        <path d="M327.1,157.7h-1.9l-1.3-2.1c-.2,0-.3,0-.5,0h-.6v2h-1.7v-8.2h2.3c2.3,0,3.6,1.1,3.6,3.1s-.6,2.1-1.6,2.5l1.7,2.5ZM323.3,154.2c1.4,0,2-.4,2-1.6s-.6-1.6-2-1.6h-.5v3.2h.5Z"/>
        <path d="M333,155.1l-3.1-5.6h1.9l1.4,2.6c.3.6.7,1.5.7,1.5,0,0,.3-1,.6-1.5l1.4-2.6h1.7l-2.9,5.4v2.7h-1.7v-2.6Z"/>
      </g>
    </g>
  </g>
</svg>