<?xml version="1.0" encoding="UTF-8"?>
<svg xmlns="http://www.w3.org/2000/svg" version="1.1" viewBox="0 0 544.3 306.9">
  <defs>
    <style>
      .cls-1 {
        fill: #fff;
      }
    </style>
  </defs>
  <!-- Generator: Adobe Illustrator 28.6.0, SVG Export Plug-In . SVG Version: 1.2.0 Build 709)  -->
  <g>
    <g id="Layer_1">
      <g id="Layer_1-2" data-name="Layer_1">
        <g>
          <polygon class="cls-1" points="185.2 132.9 185 132.9 164.5 104 155.8 106.1 154 158.4 164 156.1 165.2 121.8 165.4 121.8 185.9 150.9 194.6 148.8 196.3 96.5 186.4 98.9 185.2 132.9"/>
          <polygon class="cls-1" points="201.1 106 214.3 102.9 212.9 144.5 225.1 141.7 226.5 100 239.6 96.9 240 86.2 201.5 95.3 201.1 106"/>
          <polygon class="cls-1" points="242.7 137.5 256.8 134.2 258.5 81.9 244.5 85.2 242.7 137.5"/>
          <path class="cls-1" d="M382,107.9h0l-6.5,1.5-19.9,56.6,11.5-2.7,4.4-13.6,18.4-4.3,3.5,11.8,11.5-2.7-16.4-48s-6.5,1.4-6.5,1.4ZM374.1,141l7.3-22.8h.2l5.9,19.6s-13.4,3.2-13.4,3.2Z"/>
          <polygon class="cls-1" points="129.7 112.2 128.9 112.4 106.3 169.7 113.9 167.9 119.8 152.5 122.5 145.3 129 128.5 129 128.5 129.4 129.6 134.3 142.6 136.5 148.5 141.3 161.4 149.1 159.6 130 112.2 129.7 112.2"/>
          <polygon class="cls-1" points="430 96.8 425 112 422.7 119.1 417.2 135.7 417.2 135.7 416.9 134.6 412.5 121.5 410.5 115.4 406.2 102.4 399.1 104.1 416.2 152.1 416.5 152 416.5 152 416.8 152 416.8 152 419 151.4 438 94.8 430 96.8"/>
          <path class="cls-1" d="M349,142c1.6-3,2.4-6.2,2.5-9.6h0c.1-3.8-.5-6.8-1.8-9-1.3-2.3-3.3-3.7-6-4.5-2.7-.7-5.9-.6-9.8.3l-20.7,4.9-1.8,52.3,12.2-2.9.2-6.9.4-11.1.3-9.6h0l.2-5.8.3-8.8,7.1-1.7c2.1-.5,3.8-.2,5.1.8s1.9,2.6,1.8,4.8h0c-.1,2.3-.8,4.2-2.1,5.8s-3.1,2.7-5.2,3.2l-4.7,1.1,11,24.9,13.7-3.2-8.9-17.7c2.6-1.8,4.7-4.3,6.2-7.3h0Z"/>
          <path class="cls-1" d="M292.5,162.4v.6c-.3,1.4-.8,2.7-1.5,3.9-.8,1.2-1.7,2.1-2.9,2.9s-2.5,1.4-4.1,1.7c-2.1.5-3.8.3-5.3-.5s-2.6-2.2-3.4-4.2c-.8-2-1.1-4.6-1-7.8h0c.1-3.1.6-5.8,1.4-8.1.8-2.3,2-4.2,3.4-5.6,1.5-1.4,3.2-2.4,5.2-2.8,2-.5,3.7-.4,5.1.3s2.3,1.8,2.7,3.4v.3c.1,0,13.9-3.3,13.9-3.3v-.4c-.2-3.4-1.2-6.2-3.1-8.5-1.9-2.3-4.4-3.8-7.5-4.6-3.1-.8-6.7-.8-10.7.2-4.9,1.2-9.2,3.2-12.8,6.2s-6.5,6.7-8.5,11.1c-2,4.5-3.2,9.6-3.4,15.3h0c-.2,5.8.6,10.5,2.4,14.1,1.8,3.6,4.4,6,8,7.3,3.5,1.3,7.8,1.3,12.9.1,4.6-1.1,8.6-3,12-5.6,3.4-2.7,6-5.9,7.9-9.8s2.9-8.2,3.1-13l.2-7.1-21.9,5.2,7.9,8.7h0Z"/>
        </g>
        <g>
          <path class="cls-1" d="M113.3,202h-2.3v-1.5h6.3v1.5h-2.3v6.7h-1.7v-6.7Z"/>
          <path class="cls-1" d="M120.4,204.6c0-2.4,1.9-4.2,4.2-4.2s4.2,1.8,4.2,4.2-1.9,4.2-4.2,4.2-4.2-1.8-4.2-4.2ZM127.1,204.6c0-1.5-1-2.7-2.5-2.7s-2.5,1.2-2.5,2.7,1,2.7,2.5,2.7,2.5-1.2,2.5-2.7Z"/>
          <path class="cls-1" d="M134.5,206.1l-3.1-5.6h1.9l1.4,2.6c.3.6.7,1.5.7,1.5,0,0,.3-1,.6-1.5l1.4-2.6h1.7l-2.9,5.4v2.7h-1.7v-2.6h0Z"/>
          <path class="cls-1" d="M141.8,207.1l1.4-.8c.4.6.8,1,1.7,1s1.1-.3,1.1-.8-.5-.8-1.2-1.1l-.4-.2c-1.2-.5-2-1.2-2-2.5s1-2.2,2.5-2.2,1.8.4,2.4,1.3l-1.3.8c-.3-.5-.6-.7-1.1-.7s-.8.3-.8.7.3.7,1,1l.4.2c1.4.6,2.2,1.2,2.2,2.6s-1.2,2.3-2.8,2.3-2.6-.7-3.1-1.7h0Z"/>
          <path class="cls-1" d="M159.6,200.5h0l3.7,8.2h-1.8l-.4-.9h-3.3l-.4.9h-1.6l3.6-8.2h.1ZM160.7,206.4l-.6-1.4c-.2-.6-.5-1.5-.5-1.5,0,0-.2.9-.5,1.5l-.6,1.4h2.2Z"/>
          <path class="cls-1" d="M169.5,204.9c-.4-.4-1-1.1-1-1.1,0,0,0,.9,0,1.5v3.4h-1.6v-8.2h.2l4.1,3.9c.4.4,1,1.1,1,1.1,0,0,0-.9,0-1.5v-3.4h1.6v8.2h-.2l-4.1-3.9Z"/>
          <path class="cls-1" d="M178.1,200.6h2.5c2.5,0,4.3,1.7,4.3,4.1s-1.8,4.1-4.3,4.1h-2.5v-8.2h0ZM180.5,207.2c1.8,0,2.6-1.1,2.6-2.6s-.8-2.6-2.6-2.6h-.7v5.2h.7Z"/>
          <path class="cls-1" d="M195.8,202h-2.3v-1.5h6.3v1.5h-2.3v6.7h-1.7v-6.7Z"/>
          <path class="cls-1" d="M202.8,204.6c0-2.4,1.9-4.2,4.2-4.2s4.2,1.8,4.2,4.2-1.9,4.2-4.2,4.2-4.2-1.8-4.2-4.2ZM209.5,204.6c0-1.5-1-2.7-2.5-2.7s-2.5,1.2-2.5,2.7,1,2.7,2.5,2.7,2.5-1.2,2.5-2.7Z"/>
          <path class="cls-1" d="M215,204.6c0-2.4,1.9-4.2,4.2-4.2s4.2,1.8,4.2,4.2-1.9,4.2-4.2,4.2-4.2-1.8-4.2-4.2ZM221.7,204.6c0-1.5-1-2.7-2.5-2.7s-2.5,1.2-2.5,2.7,1,2.7,2.5,2.7,2.5-1.2,2.5-2.7Z"/>
          <path class="cls-1" d="M227.3,200.6h1.7v6.7h3.7v1.5h-5.4v-8.2Z"/>
          <path class="cls-1" d="M235.9,207.1l1.4-.8c.4.6.8,1,1.7,1s1.1-.3,1.1-.8-.5-.8-1.2-1.1l-.4-.2c-1.2-.5-2-1.2-2-2.5s1-2.2,2.5-2.2,1.8.4,2.4,1.3l-1.3.8c-.3-.5-.6-.7-1.1-.7s-.8.3-.8.7.3.7,1,1l.4.2c1.4.6,2.2,1.2,2.2,2.6s-1.2,2.3-2.8,2.3-2.6-.7-3.1-1.7h0Z"/>
          <path class="cls-1" d="M250.7,200.6h5.3v1.5h-3.6v2.7h3.2v1.5h-3.2v2.5h-1.7v-8.2Z"/>
          <path class="cls-1" d="M259.5,204.6c0-2.4,1.9-4.2,4.2-4.2s4.2,1.8,4.2,4.2-1.9,4.2-4.2,4.2-4.2-1.8-4.2-4.2ZM266.2,204.6c0-1.5-1-2.7-2.5-2.7s-2.5,1.2-2.5,2.7,1,2.7,2.5,2.7,2.5-1.2,2.5-2.7Z"/>
          <path class="cls-1" d="M277.9,208.7h-1.9l-1.3-2.1h-1.1v2h-1.7v-8.2h2.3c2.3,0,3.6,1.1,3.6,3.1s-.6,2.1-1.6,2.5l1.7,2.5v.2ZM274.1,205.2c1.4,0,2-.4,2-1.6s-.6-1.6-2-1.6h-.5v3.2h.5Z"/>
          <path class="cls-1" d="M288.8,202h-2.3v-1.5h6.3v1.5h-2.3v6.7h-1.7v-6.7Z"/>
          <path class="cls-1" d="M296.6,200.6h1.7v4.2h3.5v-4.2h1.7v8.2h-1.7v-2.5h-3.5v2.5h-1.7v-8.2Z"/>
          <path class="cls-1" d="M307.7,200.6h5.4v1.5h-3.7v2.6h3.3v1.4h-3.3v1.2h3.9v1.5h-5.6v-8.2h0Z"/>
          <path class="cls-1" d="M322,208.6l3-3c.9-.9,1.4-1.4,1.4-2.2s-.5-1.1-1.2-1.1-1.3.5-1.6,1.4l-1.4-.4c.4-1.5,1.5-2.4,3-2.4s2.8,1.1,2.8,2.4-.7,2-1.7,2.9l-.7.6c-.3.3-.8.6-.8.6h3.3v1.3h-6.2v-.2h.1Z"/>
          <path class="cls-1" d="M333.9,202.3h-1.6v-1.3h3.1v7.7h-1.5v-6.4Z"/>
          <path class="cls-1" d="M339.7,207.6l1-.7c.2.4.7.8,1.3.8s.9-.3.9-.6-.2-.5-.8-.9l-.3-.2c-.8-.5-1.2-1-1.2-1.8s.6-1.7,1.9-1.7,1.3.3,1.7.8l-.9.8c-.2-.3-.5-.5-.8-.5s-.6.3-.6.6.2.5.6.8l.3.2c.8.5,1.3,1,1.3,1.8s-.9,1.8-2.1,1.8-2-.7-2.3-1.2h0Z"/>
          <path class="cls-1" d="M348.5,203.7h-1.7l.2-1.1h4.7l-.2,1.1h-1.7l-.9,5h-1.2l.9-5h0Z"/>
          <path class="cls-1" d="M358.7,204.6c0-2.4,1.9-4.2,4.2-4.2s2.5.5,3.3,1.7l-1.3.9c-.4-.6-1-1.1-2-1.1-1.5,0-2.5,1.1-2.5,2.7s1,2.7,2.5,2.7,1.6-.5,2.1-1.2l1.3.9c-.7,1.1-1.8,1.8-3.4,1.8-2.3,0-4.2-1.8-4.2-4.2h0Z"/>
          <path class="cls-1" d="M370.1,200.6h5.4v1.5h-3.7v2.6h3.3v1.4h-3.3v1.2h3.9v1.5h-5.6v-8.2h0Z"/>
          <path class="cls-1" d="M382.2,204.9c-.4-.4-1-1.1-1-1.1,0,0,.1.9.1,1.5v3.4h-1.6v-8.2h.2l4.1,3.9c.4.4,1,1.1,1,1.1,0,0-.1-.9-.1-1.5v-3.4h1.6v8.2h-.2l-4.1-3.9Z"/>
          <path class="cls-1" d="M392.5,202h-2.3v-1.5h6.3v1.5h-2.3v6.7h-1.7v-6.7Z"/>
          <path class="cls-1" d="M400.3,205.8v-5.2h1.7v5.1c0,1.2.5,1.6,1.6,1.6s1.6-.5,1.6-1.6v-5.1h1.7v5.2c0,2.1-1.4,3.1-3.3,3.1s-3.3-1-3.3-3.1h0Z"/>
          <path class="cls-1" d="M417.1,208.7h-1.9l-1.3-2.1h-1.1v2h-1.7v-8.2h2.3c2.3,0,3.6,1.1,3.6,3.1s-.6,2.1-1.6,2.5l1.7,2.5v.2ZM413.3,205.2c1.4,0,2-.4,2-1.6s-.6-1.6-2-1.6h-.5v3.2h.5Z"/>
          <path class="cls-1" d="M423,206.1l-3.1-5.6h1.9l1.4,2.6c.3.6.7,1.5.7,1.5,0,0,.3-1,.6-1.5l1.4-2.6h1.7l-2.9,5.4v2.7h-1.7v-2.6h0Z"/>
        </g>
      </g>
    </g>
  </g>
</svg>