<svg fill="none" height="512" viewBox="0 0 512 512" width="512" xmlns="http://www.w3.org/2000/svg" xmlns:xlink="http://www.w3.org/1999/xlink"><clipPath id="a"><path d="m85 77h341v403h-341z"/></clipPath><rect fill="#ffa800" height="512" rx="113" width="512"/><g clip-path="url(#a)"><ellipse cx="257.902" cy="228.125" fill="#000" rx="132.077" ry="139.131"/><g fill="#fff"><path d="m426 230.343c0-84.686-66.988-153.343-170.506-153.343-103.517 0-170.494 68.657-170.494 153.343 0 84.687 66.977 153.344 170.494 153.344 103.518 0 170.495-68.657 170.495-153.344zm-210.355 35.893c-11.085-15.972-22.25-31.899-33.187-47.963-1.956-2.867-3.206-6.28-4.446-9.568-6.389-16.871-12.676-33.788-18.998-50.682-.159-.421-.295-.864-.534-1.558 17.145-6.667 34.256-13.311 51.514-20.023 1.979 5.313 3.9 10.455 5.81 15.609 5.264 14.209 10.71 28.361 15.69 42.684 1.66 4.79 2.194 9.977 3.138 15.006 3.615 19.158 7.185 38.316 10.812 57.678-7.458 3.265-14.769 6.474-22.193 9.727-2.581-3.709-5.105-7.303-7.606-10.91zm40.725 80.785c-16.941.034-29.89-12.401-29.515-29.932.352-16.382 13.029-28.703 30.004-28.612 16.985.091 29.423 12.628 29.367 29.602-.046 16.973-12.495 29.021-29.868 28.942zm101.369-135.38c-4.946 13.72-14.849 22.616-27.992 28.202-8.447 3.595-17.315 5.586-26.388 6.735-4.332.546-4.343.432-5.434 4.618-1.717 6.61-3.445 13.209-5.173 19.807-.125.5-.307.99-.478 1.547-10.335-1.831-20.59-3.629-30.822-5.529-.5-.091-1.228-.978-1.228-1.502-.023-9.271-.068-18.532.148-27.792.193-8.305 4.354-14.005 12.21-16.792 6.174-2.184 12.404-4.186 18.612-6.246 7.003-2.332 11.381-7.076 13.029-14.254.955-4.153 1.91-8.317 2.49-12.537.978-7.224-2.478-13.163-9.038-16.382-5.071-2.492-10.517-3.163-16.031-3.402-10.346-.466-20.351 1.65-30.311 4.084-.375.091-.762.182-1.148.251-.125.022-.262-.023-.66-.057-1.705-11.934-3.399-23.811-5.161-36.121 4.559-1.24 9.038-2.662 13.62-3.651 14.348-3.118 28.878-4.005 43.454-2.333 14.712 1.695 28.4 6.326 40.008 15.905 11.836 9.772 18.362 22.389 19.612 37.701.774 9.477-.09 18.771-3.331 27.748z"/><path d="m373.576 441.798c20.432 0 36.996-16.915 36.996-37.781s-16.564-37.782-36.996-37.782-36.996 16.916-36.996 37.782 16.564 37.781 36.996 37.781z"/><path d="m310.226 480c15.315 0 27.73-12.678 27.73-28.316 0-15.639-12.415-28.316-27.73-28.316s-27.73 12.677-27.73 28.316c0 15.638 12.415 28.316 27.73 28.316z"/></g></g></svg>