<svg width="512" height="512" viewBox="0 0 512 512" fill="none" xmlns="http://www.w3.org/2000/svg">
<rect width="512" height="512" rx="113" fill="#FFA800"/>
<g clip-path="url(#clip0_2543_1561)">
<ellipse cx="257.902" cy="228.125" rx="132.077" ry="139.131" fill="black"/>
<path d="M426 230.343C426 145.657 359.012 77 255.494 77C151.977 77 85 145.657 85 230.343C85 315.03 151.977 383.687 255.494 383.687C359.012 383.687 425.989 315.03 425.989 230.343H426ZM215.645 266.236C204.56 250.264 193.395 234.337 182.458 218.273C180.502 215.406 179.252 211.993 178.012 208.705C171.623 191.834 165.336 174.917 159.014 158.023C158.855 157.602 158.719 157.159 158.48 156.465C175.625 149.798 192.736 143.154 209.994 136.442C211.973 141.755 213.894 146.897 215.804 152.051C221.068 166.26 226.514 180.412 231.494 194.735C233.154 199.525 233.688 204.712 234.632 209.741C238.247 228.899 241.817 248.057 245.444 267.419C237.986 270.684 230.675 273.893 223.251 277.146C220.67 273.437 218.146 269.843 215.645 266.236ZM256.37 347.021C239.429 347.055 226.48 334.62 226.855 317.089C227.207 300.707 239.884 288.386 256.859 288.477C273.844 288.568 286.282 301.105 286.226 318.079C286.18 335.052 273.731 347.1 256.358 347.021H256.37ZM357.739 211.641C352.793 225.361 342.89 234.257 329.747 239.843C321.3 243.438 312.432 245.429 303.359 246.578C299.027 247.124 299.016 247.01 297.925 251.196C296.208 257.806 294.48 264.405 292.752 271.003C292.627 271.503 292.445 271.993 292.274 272.55C281.939 270.719 271.684 268.921 261.452 267.021C260.952 266.93 260.224 266.043 260.224 265.519C260.201 256.248 260.156 246.987 260.372 237.727C260.565 229.422 264.726 223.722 272.582 220.935C278.756 218.751 284.986 216.749 291.194 214.689C298.197 212.357 302.575 207.613 304.223 200.435C305.178 196.282 306.133 192.118 306.713 187.898C307.691 180.674 304.235 174.735 297.675 171.516C292.604 169.024 287.158 168.353 281.644 168.114C271.298 167.648 261.293 169.764 251.333 172.198C250.958 172.289 250.571 172.38 250.185 172.449C250.06 172.471 249.923 172.426 249.525 172.392C247.82 160.458 246.126 148.581 244.364 136.271C248.923 135.031 253.402 133.609 257.984 132.62C272.332 129.502 286.862 128.615 301.438 130.287C316.15 131.982 329.838 136.613 341.446 146.192C353.282 155.964 359.808 168.581 361.058 183.893C361.832 193.37 360.968 202.664 357.727 211.641H357.739Z" fill="white"/>
<path d="M373.576 441.798C394.008 441.798 410.572 424.883 410.572 404.017C410.572 383.151 394.008 366.235 373.576 366.235C353.144 366.235 336.58 383.151 336.58 404.017C336.58 424.883 353.144 441.798 373.576 441.798Z" fill="white"/>
<path d="M310.226 480C325.541 480 337.956 467.322 337.956 451.684C337.956 436.045 325.541 423.368 310.226 423.368C294.911 423.368 282.496 436.045 282.496 451.684C282.496 467.322 294.911 480 310.226 480Z" fill="white"/>
</g>
<defs>
<clipPath id="clip0_2543_1561">
<rect width="341" height="403" fill="white" transform="translate(85 77)"/>
</clipPath>
</defs>
</svg>
