<svg width="64" height="65" viewBox="0 0 64 65" fill="none" xmlns="http://www.w3.org/2000/svg">
<path d="M32 64.3125C14.4062 64.3125 0.125 50.0312 0.125 32.4375C0.125 14.8438 14.4062 0.5625 32 0.5625C49.5938 0.5625 63.875 14.8438 63.875 32.4375C63.875 50.0312 49.5938 64.3125 32 64.3125ZM32 59C46.6875 59 58.5625 47.125 58.5625 32.4375C58.5625 17.75 46.6875 5.875 32 5.875C17.3125 5.875 5.4375 17.75 5.4375 32.4375C5.4375 47.125 17.3125 59 32 59ZM32 48.1875C31.375 48.1875 30.8125 48 30.1875 47.375L19.875 37.4375C19.4062 36.9688 19.1562 36.4688 19.1562 35.7812C19.1562 34.5 20.0938 33.5938 21.4062 33.5938C22 33.5938 22.6875 33.8438 23.125 34.3438L27.875 39.4062L29.7188 41.3438L29.5312 36.6562V19.0938C29.5312 17.7812 30.6562 16.6875 32 16.6875C33.3438 16.6875 34.5 17.7812 34.5 19.0938V36.6562L34.2812 41.3438L36.125 39.4062L40.875 34.3438C41.3125 33.8438 41.9688 33.5938 42.5625 33.5938C43.875 33.5938 44.8438 34.5 44.8438 35.7812C44.8438 36.4688 44.5938 36.9688 44.0938 37.4375L33.8125 47.375C33.1875 48 32.625 48.1875 32 48.1875Z" fill="currentColor"/>
</svg>
