<svg width="101" height="68" viewBox="0 0 101 68" fill="none" xmlns="http://www.w3.org/2000/svg">
<g id="Logo">
<path id="//" d="M87.94 31.28L83.76 45.32H82.6L86.78 31.28H87.94ZM94.483 31.28L90.303 45.32H89.143L93.323 31.28H94.483Z" fill="white"/>
<g id="apps">
<path id="a" d="M31.36 52.72L33.74 51.86C34.04 51.76 34.08 51.58 34.08 51.28L34.1 50.36C34.12 49.62 33.88 48.62 32.64 48.62C32.08 48.62 31.4 48.9 31.36 49.52C31.34 49.84 31.32 50.08 31.16 50.2C30.86 50.44 30.32 50.58 30.02 50.58C29.84 50.58 29.74 50.48 29.74 50.3C29.74 49.26 32 47.84 33.46 47.84C34.9 47.84 35.6 48.68 35.54 50.18L35.42 53.66C35.38 54.58 35.56 55.4 36.34 55.4C36.54 55.4 36.72 55.34 36.84 55.28C36.94 55.22 37.04 55.14 37.1 55.14C37.18 55.14 37.24 55.26 37.24 55.4C37.24 55.5 36.54 56.28 35.56 56.28C35.08 56.28 34.6 56.1 34.26 55.66C34.18 55.54 34.06 55.38 33.94 55.38C33.8 55.38 33.56 55.56 33.16 55.78C32.72 56.02 32.28 56.28 31.72 56.28C31.14 56.28 30.66 56.12 30.32 55.82C29.94 55.48 29.7 54.98 29.7 54.42C29.7 53.64 30.08 53.18 31.36 52.72ZM31.24 54.18C31.24 54.52 31.48 55.38 32.5 55.38C32.9 55.38 33.52 55.08 33.72 54.88C33.96 54.64 33.96 54.36 33.98 53.94L34.02 52.76C34.02 52.54 33.94 52.5 33.82 52.5C33.7 52.5 33.36 52.58 33 52.7C31.82 53.1 31.24 53.4 31.24 54.18Z" fill="white"/>
<path id="p p s" d="M42.7 62.86V54.26C42.7 53.48 42.7 53.38 42.16 53.02L41.98 52.9C41.9 52.82 41.9 52.6 42 52.54C42.52 52.32 43.46 51.84 43.98 51.46C44.1 51.46 44.18 51.5 44.22 51.6C44.18 51.96 44.14 52.26 44.14 52.52C44.14 52.66 44.18 52.78 44.32 52.78C44.58 52.66 45.84 51.84 47.12 51.84C49.14 51.84 50.44 53.48 50.44 55.5C50.44 58.28 48.4 60.28 45.56 60.28C45.2 60.28 44.64 60.24 44.46 60.2C44.28 60.24 44.18 60.34 44.18 60.76V62.86C44.18 64.28 44.22 64.46 44.94 64.56L45.72 64.66C45.86 64.76 45.82 65.1 45.68 65.16C44.72 65.12 44.14 65.1 43.44 65.1C42.72 65.1 42.12 65.12 41.56 65.16C41.42 65.1 41.38 64.76 41.52 64.66L41.94 64.6C42.68 64.5 42.7 64.3 42.7 62.86ZM44.18 54.54V57.98C44.18 58.62 44.38 58.86 44.78 59.18C45.18 59.48 45.8 59.62 46.22 59.62C47.86 59.62 48.82 58.1 48.82 56.02C48.82 54.42 47.92 52.8 46.12 52.8C45.26 52.8 44.64 53.12 44.42 53.36C44.24 53.58 44.18 53.88 44.18 54.54ZM57.8367 62.86V54.26C57.8367 53.48 57.8367 53.38 57.2967 53.02L57.1167 52.9C57.0367 52.82 57.0367 52.6 57.1367 52.54C57.6567 52.32 58.5967 51.84 59.1167 51.46C59.2367 51.46 59.3167 51.5 59.3567 51.6C59.3167 51.96 59.2767 52.26 59.2767 52.52C59.2767 52.66 59.3167 52.78 59.4567 52.78C59.7167 52.66 60.9767 51.84 62.2567 51.84C64.2767 51.84 65.5767 53.48 65.5767 55.5C65.5767 58.28 63.5367 60.28 60.6967 60.28C60.3367 60.28 59.7767 60.24 59.5967 60.2C59.4167 60.24 59.3167 60.34 59.3167 60.76V62.86C59.3167 64.28 59.3567 64.46 60.0767 64.56L60.8567 64.66C60.9967 64.76 60.9567 65.1 60.8167 65.16C59.8567 65.12 59.2767 65.1 58.5767 65.1C57.8567 65.1 57.2567 65.12 56.6967 65.16C56.5567 65.1 56.5167 64.76 56.6567 64.66L57.0767 64.6C57.8167 64.5 57.8367 64.3 57.8367 62.86ZM59.3167 54.54V57.98C59.3167 58.62 59.5167 58.86 59.9167 59.18C60.3167 59.48 60.9367 59.62 61.3567 59.62C62.9967 59.62 63.9567 58.1 63.9567 56.02C63.9567 54.42 63.0567 52.8 61.2567 52.8C60.3967 52.8 59.7767 53.12 59.5567 53.36C59.3767 53.58 59.3167 53.88 59.3167 54.54ZM74.9934 51.84C75.8334 51.84 76.5734 52.04 76.7534 52.2C76.9334 52.64 77.0734 53.28 77.0734 53.82C76.9934 53.96 76.6934 54 76.5934 53.88C76.2534 53 75.6534 52.42 74.8334 52.42C74.0534 52.42 73.5534 52.92 73.5534 53.64C73.5534 54.46 74.3934 54.9 75.0934 55.3C76.1534 55.9 77.1334 56.58 77.1334 58C77.1334 59.52 75.7334 60.28 74.2534 60.28C73.3134 60.28 72.6134 60.08 72.1134 59.68C71.9534 59.3 71.8334 58.32 71.8734 57.66C71.9734 57.54 72.2334 57.52 72.3334 57.64C72.6734 58.74 73.3134 59.7 74.4534 59.7C75.1734 59.7 75.7934 59.28 75.7934 58.42C75.7934 57.5 74.9934 57 74.2534 56.58C73.0934 55.92 72.2734 55.22 72.2734 54.12C72.2734 52.66 73.4734 51.84 74.9934 51.84Z" fill="white"/>
</g>
<g id="nice">
<path id="n c e" d="M4.96 35.76V32.26C4.96 31.48 4.96 31.38 4.42 31.02L4.24 30.9C4.16 30.82 4.16 30.6 4.26 30.54C4.72 30.38 5.86 29.86 6.26 29.56C6.34 29.56 6.44 29.6 6.48 29.7C6.44 30.16 6.44 30.46 6.44 30.64C6.44 30.76 6.52 30.86 6.66 30.86C7.5 30.34 8.44 29.84 9.46 29.84C11.12 29.84 11.8 30.98 11.8 32.32V35.76C11.8 37.2 11.84 37.4 12.56 37.5L13 37.56C13.14 37.66 13.1 38 12.96 38.06C12.36 38.02 11.78 38 11.08 38C10.36 38 9.76 38.02 9.22 38.06C9.08 38 9.04 37.66 9.18 37.56L9.56 37.5C10.3 37.38 10.32 37.2 10.32 35.76V32.78C10.32 31.64 9.8 30.8 8.44 30.8C7.68 30.8 7.02 31.12 6.74 31.5C6.48 31.84 6.44 32.12 6.44 32.7V35.76C6.44 37.2 6.48 37.38 7.2 37.5L7.56 37.56C7.7 37.66 7.66 38 7.52 38.06C6.98 38.02 6.4 38 5.7 38C4.98 38 4.38 38.02 3.82 38.06C3.68 38 3.64 37.66 3.78 37.56L4.2 37.5C4.94 37.4 4.96 37.2 4.96 35.76ZM39.0678 29.84C39.5278 29.84 40.3078 29.94 40.8478 30.18C41.0078 30.32 41.1478 30.64 41.1478 30.98C41.1478 31.34 40.9478 31.72 40.7078 31.72C40.6078 31.72 40.5078 31.68 40.4278 31.58C39.9878 31.04 39.2478 30.52 38.4278 30.52C37.0278 30.52 35.6678 31.62 35.6678 33.74C35.6678 35.3 36.7478 37.16 38.8878 37.16C40.0478 37.16 40.6478 36.64 41.1078 35.96C41.2678 35.92 41.4478 36.06 41.4678 36.24C40.7878 37.72 39.2878 38.28 38.1278 38.28C37.0678 38.28 36.0878 37.94 35.3878 37.26C34.6878 36.58 34.2278 35.6 34.2278 34.3C34.2278 32.14 35.7478 29.84 39.0678 29.84ZM57.8156 32.88H54.1156C53.5956 32.88 53.5756 32.92 53.5756 33.42C53.5756 35.44 54.7556 37.16 56.8956 37.16C57.5556 37.16 58.1156 36.96 58.7356 36.18C58.9356 36.12 59.0756 36.24 59.0956 36.42C58.4356 37.78 56.9956 38.28 55.9556 38.28C54.6556 38.28 53.6356 37.72 53.0556 36.96C52.4556 36.18 52.2156 35.24 52.2156 34.36C52.2156 31.9 53.8356 29.84 56.2356 29.84C57.9556 29.84 59.0756 31.02 59.0756 32.22C59.0756 32.5 59.0356 32.66 58.9956 32.74C58.9356 32.86 58.6556 32.88 57.8156 32.88ZM53.9356 32.28H55.3556C56.8356 32.28 57.2756 32.2 57.4356 32.08C57.4956 32.04 57.5556 31.96 57.5556 31.7C57.5556 31.14 57.1756 30.44 56.0156 30.44C54.8356 30.44 53.8156 31.52 53.7956 32.18C53.7956 32.22 53.7956 32.28 53.9356 32.28Z" fill="white"/>
<path id="i" d="M19.96 31.76V28.26C19.96 27.48 19.96 27.38 19.42 27.02L19.24 26.9C19.16 26.82 19.16 26.6 19.26 26.54C19.72 26.38 20.86 25.86 21.32 25.56C21.42 25.56 21.5 25.6 21.52 25.68C21.48 26.38 21.44 27.34 21.44 28.16V31.76C21.44 33.2 21.48 33.4 22.2 33.5L22.62 33.56C22.76 33.66 22.72 34 22.58 34.06C21.98 34.02 21.4 34 20.7 34C19.98 34 19.38 34.02 18.82 34.06C18.68 34 18.64 33.66 18.78 33.56L19.2 33.5C19.94 33.4 19.96 33.2 19.96 31.76ZM20.62 21.52C21.22 21.52 21.62 22 21.62 22.56C21.62 23.28 21.12 23.6 20.56 23.6C19.94 23.6 19.54 23.14 19.54 22.6C19.54 21.94 20.02 21.52 20.62 21.52Z" fill="white"/>
</g>
<g id="very">
<path id="v e r" d="M41.32 12.16L39.64 8.1C39.34 7.36 39.16 6.72 38.44 6.62L38.04 6.56C37.92 6.4 37.94 6.12 38.1 6.06C38.6 6.1 39.3 6.12 39.98 6.12C40.52 6.12 40.92 6.1 41.6 6.06C41.74 6.14 41.76 6.46 41.62 6.56L41.38 6.6C40.76 6.7 40.74 6.8 40.94 7.4C41.4 8.78 41.98 10.18 42.44 11.22C42.62 11.62 42.7 11.8 42.76 11.86C42.84 11.8 42.98 11.52 43.14 11.1L44.28 8.16C44.56 7.46 44.64 7.04 44.64 6.92C44.64 6.74 44.52 6.66 44.28 6.62L43.82 6.56C43.7 6.42 43.72 6.14 43.86 6.06C44.48 6.1 44.98 6.12 45.36 6.12C45.86 6.12 46.2 6.1 46.76 6.06C46.9 6.14 46.92 6.44 46.8 6.56L46.5 6.6C45.8 6.7 45.62 7.22 45.04 8.34C44.76 8.88 43.52 11.78 43.2 12.6C43 13.1 42.8 13.56 42.54 14.24C42.5 14.3 42.42 14.32 42.34 14.32C42.24 14.32 42.14 14.3 42.08 14.24C41.92 13.68 41.62 12.9 41.32 12.16ZM57.9328 8.88H54.2328C53.7128 8.88 53.6928 8.92 53.6928 9.42C53.6928 11.44 54.8728 13.16 57.0128 13.16C57.6728 13.16 58.2328 12.96 58.8528 12.18C59.0528 12.12 59.1928 12.24 59.2128 12.42C58.5528 13.78 57.1128 14.28 56.0728 14.28C54.7728 14.28 53.7528 13.72 53.1728 12.96C52.5728 12.18 52.3328 11.24 52.3328 10.36C52.3328 7.9 53.9528 5.84 56.3528 5.84C58.0728 5.84 59.1928 7.02 59.1928 8.22C59.1928 8.5 59.1528 8.66 59.1128 8.74C59.0528 8.86 58.7728 8.88 57.9328 8.88ZM54.0528 8.28H55.4728C56.9528 8.28 57.3928 8.2 57.5528 8.08C57.6128 8.04 57.6728 7.96 57.6728 7.7C57.6728 7.14 57.2928 6.44 56.1328 6.44C54.9528 6.44 53.9328 7.52 53.9128 8.18C53.9128 8.22 53.9128 8.28 54.0528 8.28ZM66.5225 11.76V8.26C66.5225 7.48 66.5225 7.38 65.9825 7.02L65.8025 6.9C65.7225 6.82 65.7225 6.6 65.8225 6.54C66.2825 6.38 67.3425 5.86 67.8425 5.56C67.9425 5.58 68.0025 5.62 68.0025 5.7V6.86C68.0025 6.96 68.0225 7.02 68.0625 7.04C68.7625 6.46 69.5225 5.84 70.2625 5.84C70.7625 5.84 71.1625 6.16 71.1625 6.64C71.1625 7.3 70.6225 7.56 70.3025 7.56C70.1025 7.56 70.0025 7.5 69.8625 7.42C69.5625 7.22 69.2625 7.1 68.9825 7.1C68.6625 7.1 68.4225 7.28 68.2625 7.5C68.0625 7.78 68.0025 8.36 68.0025 9.04V11.76C68.0025 13.2 68.0425 13.44 68.8025 13.5L69.5225 13.56C69.6625 13.66 69.6225 14 69.4825 14.06C68.5425 14.02 67.9625 14 67.2625 14C66.5425 14 65.9425 14.02 65.4225 14.06C65.2825 14 65.2425 13.66 65.3825 13.56L65.7625 13.5C66.5025 13.38 66.5225 13.2 66.5225 11.76Z" fill="white"/>
<path id="y" d="M76.36 23.98C75.78 23.98 75.48 23.62 75.48 23.12C75.48 22.58 75.84 22.32 76.28 22.32H76.66C76.98 22.32 77.18 22.18 77.32 21.96C77.9 21.06 78.3 20.22 78.48 19.74C78.54 19.58 78.68 19.16 78.68 18.88C78.68 18.48 78.6 18.24 78.34 17.5L76.78 13.22C76.44 12.28 76.3 11.8 75.6 11.66L75.1 11.56C74.98 11.46 75 11.12 75.16 11.06C75.8 11.1 76.4 11.12 77.06 11.12C77.6 11.12 78.16 11.1 78.8 11.06C78.96 11.12 78.98 11.46 78.84 11.56L78.34 11.66C78.06 11.72 77.9 11.78 77.9 11.92C77.9 12.16 78.36 13.46 78.48 13.8L79.12 15.64C79.24 15.96 79.62 17.02 79.7 17.06C79.76 17.02 80.08 16.4 80.44 15.58L81.12 14C81.56 12.96 81.82 12.22 81.82 12C81.82 11.86 81.7 11.72 81.34 11.66L80.72 11.56C80.58 11.46 80.6 11.12 80.76 11.06C81.4 11.1 82 11.12 82.52 11.12C83.02 11.12 83.48 11.1 84.04 11.06C84.2 11.14 84.22 11.44 84.08 11.56L83.74 11.62C83.08 11.74 82.72 12.32 82.04 13.74L80.92 16.04C80.26 17.38 78.62 20.86 77.64 23.04C77.3 23.8 76.82 23.98 76.36 23.98Z" fill="white"/>
</g>
<path id="Ellipse 1" d="M100.5 34C100.5 43.172 94.9783 51.5347 85.9296 57.6269C76.884 63.717 64.3592 67.5 50.5 67.5C36.6408 67.5 24.116 63.717 15.0703 57.6269C6.02168 51.5347 0.5 43.172 0.5 34C0.5 24.828 6.02168 16.4653 15.0703 10.3731C24.116 4.28301 36.6408 0.5 50.5 0.5C64.3592 0.5 76.884 4.28301 85.9296 10.3731C94.9783 16.4653 100.5 24.828 100.5 34Z" stroke="#FF0000"/>
</g>
</svg>
