<svg width="64" height="65" viewBox="0 0 64 65" fill="none" xmlns="http://www.w3.org/2000/svg">
<path d="M32 64.3125C14.4062 64.3125 0.125 50.0312 0.125 32.4375C0.125 14.8438 14.4062 0.5625 32 0.5625C49.5938 0.5625 63.875 14.8438 63.875 32.4375C63.875 50.0312 49.5938 64.3125 32 64.3125ZM32 59C46.6875 59 58.5625 47.125 58.5625 32.4375C58.5625 17.75 46.6875 5.875 32 5.875C17.3125 5.875 5.4375 17.75 5.4375 32.4375C5.4375 47.125 17.3125 59 32 59ZM47.75 32.4062C47.75 33.0312 47.5312 33.5938 46.9062 34.2188L36.9688 44.5312C36.5 45 36 45.25 35.3438 45.25C34.0625 45.25 33.1562 44.3125 33.1562 43C33.1562 42.4062 33.375 41.7188 33.9062 41.2812L38.9688 36.5312L40.9062 34.6875L36.2188 34.875H18.6562C17.3438 34.875 16.2188 33.75 16.2188 32.4062C16.2188 31.0625 17.3438 29.9062 18.6562 29.9062H36.2188L40.9062 30.125L38.9688 28.2812L33.9062 23.5312C33.375 23.0938 33.1562 22.4375 33.1562 21.8438C33.1562 20.5312 34.0625 19.5625 35.3438 19.5625C36 19.5625 36.5 19.8125 36.9688 20.2812L46.9062 30.5938C47.5312 31.2188 47.75 31.75 47.75 32.4062Z" fill="black"/>
</svg>
