<svg width="1200" height="1200" viewBox="0 0 1200 1200" fill="none" xmlns="http://www.w3.org/2000/svg">
<rect width="1200" height="1200" fill="#FCFCF9"/>
<rect x="91.5" y="91.5" width="1017" height="1017" rx="211.5" fill="#FCFCF9" stroke="#FF0000" stroke-width="7"/>
<path d="M301.375 249.375H324.125L362 362.25H363.625L401.25 249.375H423.875L374.375 385H351L301.375 249.375ZM557.5 350H578.125C574 372.375 552.5 387.5 524 387.5C486.75 387.5 465.125 365.125 465.125 326.5V306.125C465.125 270.375 488 246.875 522.5 246.875C557.75 246.875 578.5 270.25 578.5 309.5V322.75H486.125V328.25C486.125 353.125 500.875 369.125 524 369.125C541.125 369.125 553.75 361.875 557.5 350ZM522.375 265.125C499.75 265.125 486.125 280.625 486.125 306.625H557.5C557.5 280.75 544.25 265.125 522.375 265.125ZM673.75 324.25V368H715.75V385H625.625V368H653V266.375H622.875V249.375H673.5V284H676.25C681.25 258.875 698.125 245.875 724.25 245.875C732 245.875 739.375 247 743.875 248.875V272.75C737.625 270.5 728.875 269 721.5 269C691.5 269 673.75 289.75 673.75 324.25ZM799.375 433.25C796.25 433.25 792.125 433.125 790.25 432.875V414.25C791.875 414.625 795.75 414.75 797.75 414.75C810.5 414.75 817.5 409 823.125 393.25L825.5 385.875L775.625 249.375H798.75L836.75 362.875H838.375L876.25 249.375H898.875L847.75 390C835.875 423.375 824.5 433.25 799.375 433.25ZM307.125 691V555.375H327.5V579.25H329.25C336.5 562.375 352 552.875 372.625 552.875C402.125 552.875 418.125 570.5 418.125 603V691H396.875V608.375C396.875 583.875 386.875 572.375 365.75 572.375C343.375 572.375 328.375 588 328.375 611.125V691H307.125ZM523.25 522.125C513.25 522.125 505.625 514.625 505.625 504.625C505.625 494.75 513.25 487.25 523.25 487.25C533.25 487.25 540.875 494.75 540.875 504.625C540.875 514.625 533.25 522.125 523.25 522.125ZM580.125 691H467.75V673.375H514.25V573H468.125V555.375H535.25V673.375H580.125V691ZM735.625 597.625H714.625C712 581.75 698.75 571.75 681.25 571.75C657.625 571.75 644.5 587.875 644.5 617V629.25C644.5 658.375 657.625 674.375 681.25 674.375C698.75 674.375 712 664.5 714.625 649H735.625C732.25 676.625 711.625 693.5 681.625 693.5C644.75 693.5 623.25 670.875 623.25 632V614.25C623.25 575.375 644.75 552.75 681.625 552.75C711.625 552.75 732.125 569.75 735.625 597.625ZM874 656H894.625C890.5 678.375 869 693.5 840.5 693.5C803.25 693.5 781.625 671.125 781.625 632.5V612.125C781.625 576.375 804.5 552.875 839 552.875C874.25 552.875 895 576.25 895 615.5V628.75H802.625V634.25C802.625 659.125 817.375 675.125 840.5 675.125C857.625 675.125 870.25 667.875 874 656ZM838.875 571.125C816.25 571.125 802.625 586.625 802.625 612.625H874C874 586.75 860.75 571.125 838.875 571.125ZM348.875 999.375C323 999.375 305.75 983.125 305.75 958.5C305.75 934.5 323 920.25 353.875 918.625L391.125 916.75V904.5C391.125 887.5 380.75 878.125 361.875 878.125C346.25 878.125 335.25 884.75 331.75 896.375H310.875C313.375 874.625 334.375 859.75 362.125 859.75C394 859.75 412.25 876 412.25 904.25V997.125H392V976.75H389.875C383.375 991.25 368.625 999.375 348.875 999.375ZM355 980.75C375.5 980.75 391.125 967.125 391.125 949V933L356.25 934.625C337.25 935.5 327.25 943.625 327.25 957.75C327.25 972 337.875 980.75 355 980.75ZM529.375 859.125C560.75 859.125 581.25 881.75 581.25 916.625V941.875C581.25 976.625 560.75 999.25 529.375 999.25C509.75 999.25 495.375 990.875 489.5 976H487.125V1042.75H465.5V861.375H486.5V882.125H488.75C495.875 867.125 510 859.125 529.375 859.125ZM523.25 878.625C500.875 878.625 486.625 894.625 486.625 919.625V939.125C486.625 964.25 500.875 980.25 523.25 980.25C545.625 980.25 559.875 964.125 559.875 939.125V919.625C559.875 894.625 545.625 878.625 523.25 878.625ZM687.625 859.125C719 859.125 739.5 881.75 739.5 916.625V941.875C739.5 976.625 719 999.25 687.625 999.25C668 999.25 653.625 990.875 647.75 976H645.375V1042.75H623.75V861.375H644.75V882.125H647C654.125 867.125 668.25 859.125 687.625 859.125ZM681.5 878.625C659.125 878.625 644.875 894.625 644.875 919.625V939.125C644.875 964.25 659.125 980.25 681.5 980.25C703.875 980.25 718.125 964.125 718.125 939.125V919.625C718.125 894.625 703.875 878.625 681.5 878.625ZM788 898C788 874.5 808 858.75 837.875 858.75C866.125 858.75 885.25 872.875 887.75 895.5H867.25C864.75 883.625 853.375 876.375 837.5 876.375C820.25 876.375 809.125 884.375 809.125 896.75C809.125 907.125 816.125 913 833.125 916.75L852.25 921.125C878.625 927.125 890.625 938.625 890.625 958.25C890.625 983.25 869.75 999.5 837.625 999.5C806.875 999.5 786.5 985.125 784.125 961.875H805.75C808.875 974.375 820.875 981.625 838.375 981.625C856.875 981.625 868.625 973.25 868.625 960.25C868.625 949.5 862 943.75 844.75 939.875L824.625 935.25C800.125 929.625 788 917.25 788 898Z" fill="black"/>
</svg>
