<svg width="1024" height="1024" viewBox="0 0 1024 1024" fill="none" xmlns="http://www.w3.org/2000/svg">
<g clip-path="url(#clip0_324_20)">
<path d="M635.13 438.6L618.33 398C615.33 390.6 613.53 384.2 606.33 383.2L602.33 382.6C601.13 381 601.33 378.2 602.93 377.6C607.93 378 614.93 378.2 621.73 378.2C627.13 378.2 631.13 378 637.93 377.6C639.33 378.4 639.53 381.6 638.13 382.6L635.73 383C629.53 384 629.33 385 631.33 391C635.93 404.8 641.73 418.8 646.33 429.2C648.13 433.2 648.93 435 649.53 435.6C650.33 435 651.73 432.2 653.33 428L664.73 398.6C667.53 391.6 668.33 387.4 668.33 386.2C668.33 384.4 667.13 383.6 664.73 383.2L660.13 382.6C658.93 381.2 659.13 378.4 660.53 377.6C666.73 378 671.73 378.2 675.53 378.2C680.53 378.2 683.93 378 689.53 377.6C690.93 378.4 691.13 381.4 689.93 382.6L686.93 383C679.93 384 678.13 389.2 672.33 400.4C669.53 405.8 657.13 434.8 653.93 443C651.93 448 649.93 452.6 647.33 459.4C646.93 460 646.13 460.2 645.33 460.2C644.33 460.2 643.33 460 642.73 459.4C641.13 453.8 638.13 446 635.13 438.6ZM746.086 405.8H709.086C703.886 405.8 703.686 406.2 703.686 411.2C703.686 431.4 715.486 448.6 736.886 448.6C743.486 448.6 749.086 446.6 755.286 438.8C757.286 438.2 758.686 439.4 758.886 441.2C752.286 454.8 737.886 459.8 727.486 459.8C714.486 459.8 704.286 454.2 698.486 446.6C692.486 438.8 690.086 429.4 690.086 420.6C690.086 396 706.286 375.4 730.286 375.4C747.486 375.4 758.686 387.2 758.686 399.2C758.686 402 758.286 403.6 757.886 404.4C757.286 405.6 754.486 405.8 746.086 405.8ZM707.286 399.8H721.486C736.286 399.8 740.686 399 742.286 397.8C742.886 397.4 743.486 396.6 743.486 394C743.486 388.4 739.686 381.4 728.086 381.4C716.286 381.4 706.086 392.2 705.886 398.8C705.886 399.2 705.886 399.8 707.286 399.8ZM777.983 434.6V399.6C777.983 391.8 777.983 390.8 772.583 387.2L770.783 386C769.983 385.2 769.983 383 770.983 382.4C775.583 380.8 786.183 375.6 791.183 372.6C792.183 372.8 792.783 373.2 792.783 374V385.6C792.783 386.6 792.983 387.2 793.383 387.4C800.383 381.6 807.983 375.4 815.383 375.4C820.383 375.4 824.383 378.6 824.383 383.4C824.383 390 818.983 392.6 815.783 392.6C813.783 392.6 812.783 392 811.383 391.2C808.383 389.2 805.383 388 802.583 388C799.383 388 796.983 389.8 795.383 392C793.383 394.8 792.783 400.6 792.783 407.4V434.6C792.783 449 793.183 451.4 800.783 452L807.983 452.6C809.383 453.6 808.983 457 807.583 457.6C798.183 457.2 792.383 457 785.383 457C778.183 457 772.183 457.2 766.983 457.6C765.583 457 765.183 453.6 766.583 452.6L770.383 452C777.783 450.8 777.983 449 777.983 434.6ZM837.905 506.8C832.105 506.8 829.105 503.2 829.105 498.2C829.105 492.8 832.705 490.2 837.105 490.2H840.905C844.105 490.2 846.105 488.8 847.505 486.6C853.305 477.6 857.305 469.2 859.105 464.4C859.705 462.8 861.105 458.6 861.105 455.8C861.105 451.8 860.305 449.4 857.705 442L842.105 399.2C838.705 389.8 837.305 385 830.305 383.6L825.305 382.6C824.105 381.6 824.305 378.2 825.905 377.6C832.305 378 838.305 378.2 844.905 378.2C850.305 378.2 855.905 378 862.305 377.6C863.905 378.2 864.105 381.6 862.705 382.6L857.705 383.6C854.905 384.2 853.305 384.8 853.305 386.2C853.305 388.6 857.905 401.6 859.105 405L865.505 423.4C866.705 426.6 870.505 437.2 871.305 437.6C871.905 437.2 875.105 431 878.705 422.8L885.505 407C889.905 396.6 892.505 389.2 892.505 387C892.505 385.6 891.305 384.2 887.705 383.6L881.505 382.6C880.105 381.6 880.305 378.2 881.905 377.6C888.305 378 894.305 378.2 899.505 378.2C904.505 378.2 909.105 378 914.705 377.6C916.305 378.4 916.505 381.4 915.105 382.6L911.705 383.2C905.105 384.4 901.505 390.2 894.705 404.4L883.505 427.4C876.905 440.8 860.505 475.6 850.705 497.4C847.305 505 842.505 506.8 837.905 506.8ZM627.78 634.6V599.6C627.78 591.8 627.78 590.8 622.38 587.2L620.58 586C619.78 585.2 619.78 583 620.78 582.4C625.38 580.8 636.78 575.6 640.78 572.6C641.58 572.6 642.58 573 642.98 574C642.58 578.6 642.58 581.6 642.58 583.4C642.58 584.6 643.38 585.6 644.78 585.6C653.18 580.4 662.58 575.4 672.78 575.4C689.38 575.4 696.18 586.8 696.18 600.2V634.6C696.18 649 696.58 651 703.78 652L708.18 652.6C709.58 653.6 709.18 657 707.78 657.6C701.78 657.2 695.98 657 688.98 657C681.78 657 675.78 657.2 670.38 657.6C668.98 657 668.58 653.6 669.98 652.6L673.78 652C681.18 650.8 681.38 649 681.38 634.6V604.8C681.38 593.4 676.18 585 662.58 585C654.98 585 648.38 588.2 645.58 592C642.98 595.4 642.58 598.2 642.58 604V634.6C642.58 649 642.98 650.8 650.18 652L653.78 652.6C655.18 653.6 654.78 657 653.38 657.6C647.98 657.2 642.18 657 635.18 657C627.98 657 621.98 657.2 616.38 657.6C614.98 657 614.58 653.6 615.98 652.6L620.18 652C627.58 651 627.78 649 627.78 634.6ZM728.858 634.6V599.6C728.858 591.8 728.858 590.8 723.458 587.2L721.658 586C720.858 585.2 720.858 583 721.858 582.4C726.458 580.8 737.858 575.6 742.458 572.6C743.458 572.6 744.258 573 744.458 573.8C744.058 580.8 743.658 590.4 743.658 598.6V634.6C743.658 649 744.058 651 751.258 652L755.458 652.6C756.858 653.6 756.458 657 755.058 657.6C749.058 657.2 743.258 657 736.258 657C729.058 657 723.058 657.2 717.458 657.6C716.058 657 715.658 653.6 717.058 652.6L721.258 652C728.658 651 728.858 649 728.858 634.6ZM735.458 532.2C741.458 532.2 745.458 537 745.458 542.6C745.458 549.8 740.458 553 734.858 553C728.658 553 724.658 548.4 724.658 543C724.658 536.4 729.458 532.2 735.458 532.2ZM812.225 575.4C816.825 575.4 824.625 576.4 830.025 578.8C831.625 580.2 833.025 583.4 833.025 586.8C833.025 590.4 831.025 594.2 828.625 594.2C827.625 594.2 826.625 593.8 825.825 592.8C821.425 587.4 814.025 582.2 805.825 582.2C791.825 582.2 778.225 593.2 778.225 614.4C778.225 630 789.025 648.6 810.425 648.6C822.025 648.6 828.025 643.4 832.625 636.6C834.225 636.2 836.025 637.6 836.225 639.4C829.425 654.2 814.425 659.8 802.825 659.8C792.225 659.8 782.425 656.4 775.425 649.6C768.425 642.8 763.825 633 763.825 620C763.825 598.4 779.025 575.4 812.225 575.4ZM895.703 605.8H858.703C853.503 605.8 853.303 606.2 853.303 611.2C853.303 631.4 865.103 648.6 886.503 648.6C893.103 648.6 898.703 646.6 904.903 638.8C906.903 638.2 908.303 639.4 908.503 641.2C901.903 654.8 887.503 659.8 877.103 659.8C864.103 659.8 853.903 654.2 848.103 646.6C842.103 638.8 839.703 629.4 839.703 620.6C839.703 596 855.903 575.4 879.903 575.4C897.103 575.4 908.303 587.2 908.303 599.2C908.303 602 907.903 603.6 907.503 604.4C906.903 605.6 904.103 605.8 895.703 605.8ZM856.903 599.8H871.103C885.903 599.8 890.303 599 891.903 597.8C892.503 597.4 893.103 596.6 893.103 594C893.103 588.4 889.303 581.4 877.703 581.4C865.903 581.4 855.703 592.2 855.503 598.8C855.503 599.2 855.503 599.8 856.903 599.8ZM197.741 775.4C202.341 775.4 210.141 776.4 215.541 778.8C217.141 780.2 218.541 783.4 218.541 786.8C218.541 790.4 216.541 794.2 214.141 794.2C213.141 794.2 212.141 793.8 211.341 792.8C206.941 787.4 199.541 782.2 191.341 782.2C177.341 782.2 163.741 793.2 163.741 814.4C163.741 830 174.541 848.6 195.941 848.6C207.541 848.6 213.541 843.4 218.141 836.6C219.741 836.2 221.541 837.6 221.741 839.4C214.941 854.2 199.941 859.8 188.341 859.8C177.741 859.8 167.941 856.4 160.941 849.6C153.941 842.8 149.341 833 149.341 820C149.341 798.4 164.541 775.4 197.741 775.4ZM267.819 775.4C290.219 775.4 308.419 792.2 308.419 816.8C308.419 841.8 291.219 859.8 266.219 859.8C243.219 859.8 225.219 843.6 225.219 818.6C225.219 793.4 244.219 775.4 267.819 775.4ZM291.219 820C291.219 803 284.419 781.4 265.419 781.4C252.219 781.4 242.419 794 242.419 816C242.419 834.2 250.619 853.8 268.219 853.8C285.819 853.8 291.219 835.4 291.219 820ZM331.084 834.6V799.6C331.084 791.8 331.084 790.8 325.684 787.2L323.884 786C323.084 785.2 323.084 783 324.084 782.4C328.684 780.8 340.084 775.6 344.084 772.6C344.884 772.6 345.884 773 346.284 774C345.884 778.6 345.884 781.6 345.884 783.4C345.884 784.6 346.684 785.6 348.084 785.6C356.484 780.4 365.884 775.4 376.084 775.4C392.684 775.4 399.484 786.8 399.484 800.2V834.6C399.484 849 399.884 851 407.084 852L411.484 852.6C412.884 853.6 412.484 857 411.084 857.6C405.084 857.2 399.284 857 392.284 857C385.084 857 379.084 857.2 373.684 857.6C372.284 857 371.884 853.6 373.284 852.6L377.084 852C384.484 850.8 384.684 849 384.684 834.6V804.8C384.684 793.4 379.484 785 365.884 785C358.284 785 351.684 788.2 348.884 792C346.284 795.4 345.884 798.2 345.884 804V834.6C345.884 849 346.284 850.8 353.484 852L357.084 852.6C358.484 853.6 358.084 857 356.684 857.6C351.284 857.2 345.484 857 338.484 857C331.284 857 325.284 857.2 319.684 857.6C318.284 857 317.884 853.6 319.284 852.6L323.484 852C330.884 851 331.084 849 331.084 834.6ZM449.763 775.4C458.163 775.4 465.563 777.4 467.363 779C469.163 783.4 470.563 789.8 470.563 795.2C469.763 796.6 466.763 797 465.763 795.8C462.363 787 456.363 781.2 448.163 781.2C440.363 781.2 435.363 786.2 435.363 793.4C435.363 801.6 443.763 806 450.763 810C461.363 816 471.163 822.8 471.163 837C471.163 852.2 457.163 859.8 442.363 859.8C432.963 859.8 425.963 857.8 420.963 853.8C419.363 850 418.163 840.2 418.563 833.6C419.563 832.4 422.163 832.2 423.163 833.4C426.563 844.4 432.963 854 444.363 854C451.563 854 457.763 849.8 457.763 841.2C457.763 832 449.763 827 442.363 822.8C430.763 816.2 422.563 809.2 422.563 798.2C422.563 783.6 434.563 775.4 449.763 775.4ZM505.011 794.2V827.6C505.011 841.4 508.411 850.6 523.611 850.6C529.011 850.6 535.411 848.4 539.811 844.6C542.411 842.2 543.811 839.2 543.811 833V800.2C543.811 787.2 542.411 786.8 536.411 784.4L533.811 783.4C532.411 782.6 532.411 779.8 534.011 779C542.011 778.8 553.011 777.4 557.411 775.4C558.411 775.6 559.011 776 559.211 776.8C558.811 780.6 558.611 786.8 558.611 794.2V827.8C558.611 843.6 559.211 849.6 564.811 849.6C567.211 849.6 569.811 849.2 572.611 848.6C573.811 849.6 574.011 853.6 572.411 854.4C564.611 856 553.011 858 546.211 861.8C545.211 861.8 544.211 861.2 543.811 860.4V852.2C543.811 850.4 543.211 849.4 542.011 849.4C536.011 853.2 526.211 859.8 514.411 859.8C496.811 859.8 490.211 851 490.211 834.8V801.4C490.211 788.8 490.211 787 484.211 784.4L481.811 783.4C480.611 782.4 480.811 779.6 482.211 779C491.411 778.8 499.211 777 503.611 775.4C504.811 775.6 505.411 776 505.611 776.8C505.211 780.2 505.011 784.4 505.011 794.2ZM603.955 740V834.6C603.955 849 604.355 851 611.555 852L616.355 852.6C617.755 853.6 617.355 857 615.955 857.6C609.355 857.2 603.555 857 596.555 857C589.355 857 583.355 857.2 577.355 857.6C575.955 857 575.555 853.6 576.955 852.6L581.555 852C588.955 851 589.155 849 589.155 834.6V744.2C589.155 732.4 588.955 731.2 582.955 727.6L580.955 726.4C579.955 725.8 579.955 723 580.955 722.4C585.955 720.8 595.355 717.8 602.555 714C603.355 714 604.155 714.4 604.555 715.2C604.355 721.2 603.955 731.2 603.955 740ZM675.569 786.6H652.969C649.569 786.6 649.369 787.2 649.369 791.4V828.8C649.369 840.4 650.769 851 663.969 851C665.969 851 667.769 850.6 669.369 850C671.169 849.4 673.769 847.2 674.369 847.2C675.969 847.2 676.769 849.4 676.369 850.6C672.769 854.8 665.569 859.8 655.369 859.8C638.169 859.8 634.569 850.2 634.569 838.2V792.4C634.569 787 634.369 786.6 630.369 786.6H624.769C623.569 785.8 623.369 783.6 624.169 782.4C629.969 780.6 634.969 778 636.969 776.2C639.569 773.8 643.369 768.4 645.369 764.4C646.369 764 648.769 764 649.569 765.4V774.4C649.569 778 649.769 778.2 653.169 778.2H675.369C677.769 780 677.369 785.4 675.569 786.6ZM693.897 834.6V799.6C693.897 791.8 693.897 790.8 688.497 787.2L686.697 786C685.897 785.2 685.897 783 686.897 782.4C691.497 780.8 702.897 775.6 707.497 772.6C708.497 772.6 709.297 773 709.497 773.8C709.097 780.8 708.697 790.4 708.697 798.6V834.6C708.697 849 709.097 851 716.297 852L720.497 852.6C721.897 853.6 721.497 857 720.097 857.6C714.097 857.2 708.297 857 701.297 857C694.097 857 688.097 857.2 682.497 857.6C681.097 857 680.697 853.6 682.097 852.6L686.297 852C693.697 851 693.897 849 693.897 834.6ZM700.497 732.2C706.497 732.2 710.497 737 710.497 742.6C710.497 749.8 705.497 753 699.897 753C693.697 753 689.697 748.4 689.697 743C689.697 736.4 694.497 732.2 700.497 732.2ZM741.264 834.6V799.6C741.264 791.8 741.264 790.8 735.864 787.2L734.064 786C733.264 785.2 733.264 783 734.264 782.4C738.864 780.8 750.264 775.6 754.264 772.6C755.064 772.6 756.064 773 756.464 774C756.064 778.6 756.064 781.6 756.064 783.4C756.064 784.6 756.864 785.6 758.264 785.6C766.664 780.4 776.064 775.4 786.264 775.4C802.864 775.4 809.664 786.8 809.664 800.2V834.6C809.664 849 810.064 851 817.264 852L821.664 852.6C823.064 853.6 822.664 857 821.264 857.6C815.264 857.2 809.464 857 802.464 857C795.264 857 789.264 857.2 783.864 857.6C782.464 857 782.064 853.6 783.464 852.6L787.264 852C794.664 850.8 794.864 849 794.864 834.6V804.8C794.864 793.4 789.664 785 776.064 785C768.464 785 761.864 788.2 759.064 792C756.464 795.4 756.064 798.2 756.064 804V834.6C756.064 849 756.464 850.8 763.664 852L767.264 852.6C768.664 853.6 768.264 857 766.864 857.6C761.464 857.2 755.664 857 748.664 857C741.464 857 735.464 857.2 729.864 857.6C728.464 857 728.064 853.6 729.464 852.6L733.664 852C741.064 851 741.264 849 741.264 834.6ZM895.742 782.6H911.942C914.142 783.6 913.742 790.4 910.742 790.8H896.342C896.742 794.2 896.742 797.6 896.742 801C896.742 814.8 888.542 832.8 863.142 832.8C859.542 832.8 856.742 832.4 854.342 832.2C851.942 833.6 845.542 837.4 845.542 843.2C845.542 847.8 850.142 851.6 859.542 851.6C866.342 851.6 874.542 851 883.342 851C894.542 851 911.342 853 911.342 873C911.342 894.8 887.542 910.8 861.542 910.8C836.942 910.8 828.342 897.6 828.342 887.6C828.342 884.4 829.142 881.8 830.542 880.2C833.942 876.6 839.542 871.4 844.142 866.8C845.942 865 847.542 863.2 845.742 862C837.942 860 831.142 853.2 831.142 846.2C831.142 845.2 831.942 844.4 834.142 842.8C837.542 840.6 841.342 837.2 844.742 833.6C845.742 832.4 846.742 830.8 846.742 829.8C839.942 826.2 831.742 818.4 831.742 805.6C831.742 788.4 846.542 775.4 864.342 775.4C871.942 775.4 878.942 777.4 883.542 779.4C889.942 782.2 891.342 782.6 895.742 782.6ZM876.942 863.4H870.142C863.742 863.4 855.742 863.8 852.942 865.6C848.142 868.6 843.342 874.8 843.342 882.4C843.342 893.2 851.942 902.2 870.142 902.2C887.942 902.2 899.742 892.2 899.742 880.8C899.742 868.6 891.342 863.4 876.942 863.4ZM866.142 827C876.942 827 882.542 818.4 882.542 806.2C882.542 792.6 876.942 781.2 864.742 781.2C855.142 781.2 847.942 790 847.942 803.6C847.942 817.8 856.542 827 866.142 827Z" fill="black"/>
</g>
<rect x="3.5" y="3.5" width="1017" height="1017" rx="224.5" stroke="#FF0000" stroke-width="7"/>
<defs>
<clipPath id="clip0_324_20">
<rect width="1024" height="1024" rx="228" fill="white"/>
</clipPath>
</defs>
</svg>
